<?xml version="1.0" encoding="utf-8"?>
<!-- Uploaded to: SVG Repo, www.svgrepo.com, Generator: SVG Repo Mixer Tools -->
<svg fill="#000000" width="800px" height="800px" viewBox="0 0 32 32" version="1.1" xmlns="http://www.w3.org/2000/svg">
<title>arrows-minimize</title>
<path d="M14 2.75c-0.69 0-1.25 0.56-1.25 1.25v0 6.982l-9.866-9.866c-0.226-0.225-0.537-0.363-0.881-0.363-0.69 0-1.25 0.56-1.25 1.25 0 0.344 0.139 0.655 0.363 0.881l9.866 9.866h-6.982c-0.69 0-1.25 0.56-1.25 1.25s0.56 1.25 1.25 1.25v0h10c0.689-0.003 1.247-0.561 1.25-1.25v-10c0-0.69-0.56-1.25-1.25-1.25v0zM17.522 15.153c0.141 0.061 0.305 0.096 0.478 0.097h10c0.69 0 1.25-0.56 1.25-1.25s-0.56-1.25-1.25-1.25v0h-6.981l9.866-9.866c0.226-0.226 0.366-0.539 0.366-0.884 0-0.691-0.56-1.251-1.251-1.251-0.346 0-0.658 0.14-0.885 0.367v0l-9.865 9.866v-6.982c0-0.69-0.56-1.25-1.25-1.25s-1.25 0.56-1.25 1.25v0 10c0.002 0.517 0.316 0.96 0.764 1.15l0.008 0.003zM21.019 19.25h6.981c0.69 0 1.25-0.56 1.25-1.25s-0.56-1.25-1.25-1.25v0l-10.013 0.003c-0.68 0.005-1.229 0.555-1.235 1.234v0.001l-0.003 0.013v10c0 0.69 0.56 1.25 1.25 1.25s1.25-0.56 1.25-1.25v0-6.981l9.865 9.866c0.226 0.226 0.539 0.366 0.884 0.366 0.691 0 1.251-0.56 1.251-1.251 0-0.345-0.14-0.658-0.366-0.884l0 0zM15.154 17.523c-0.193-0.456-0.636-0.771-1.153-0.773h-10c-0.69 0-1.25 0.56-1.25 1.25s0.56 1.25 1.25 1.25v0h6.982l-9.866 9.865c-0.227 0.226-0.367 0.539-0.367 0.885 0 0.691 0.56 1.251 1.251 1.251 0.345 0 0.658-0.14 0.884-0.366v0l9.866-9.866v6.981c0 0.69 0.56 1.25 1.25 1.25s1.25-0.56 1.25-1.25v0-10l-0.003-0.013c-0.001-0.168-0.036-0.327-0.097-0.473l0.003 0.008z"></path>
</svg>